<?xml version="1.0" encoding="utf-8"?>
<!-- Generator: Adobe Illustrator 16.0.0, SVG Export Plug-In . SVG Version: 6.00 Build 0)  -->
<!DOCTYPE svg PUBLIC "-//W3C//DTD SVG 1.1//EN" "http://www.w3.org/Graphics/SVG/1.1/DTD/svg11.dtd">
<svg version="1.1" id="Layer_1" xmlns="http://www.w3.org/2000/svg" xmlns:xlink="http://www.w3.org/1999/xlink" x="0px" y="0px"
	 width="400px" height="358px" viewBox="0 0 400 358" enable-background="new 0 0 400 358" xml:space="preserve">
<radialGradient id="XMLID_3_" cx="200" cy="179" r="189.7907" gradientUnits="userSpaceOnUse">
	<stop  offset="0.3091" style="stop-color:#1B130D"/>
	<stop  offset="1" style="stop-color:#0F0000"/>
</radialGradient>
<rect id="XMLID_1_" fill="url(#XMLID_3_)" width="400" height="358"/>
<g>
	<g>
		
			<radialGradient id="SVGID_1_" cx="-23.3735" cy="-21.6855" r="9.4685" gradientTransform="matrix(-1 0 0 1 299.8945 139.1055)" gradientUnits="userSpaceOnUse">
			<stop  offset="0.1439" style="stop-color:#F7DA8B"/>
			<stop  offset="0.2111" style="stop-color:#D4BB77"/>
			<stop  offset="0.3291" style="stop-color:#9C8A58"/>
			<stop  offset="0.4478" style="stop-color:#6D603D"/>
			<stop  offset="0.5648" style="stop-color:#453D27"/>
			<stop  offset="0.6797" style="stop-color:#272316"/>
			<stop  offset="0.7919" style="stop-color:#110F0A"/>
			<stop  offset="0.9001" style="stop-color:#040402"/>
			<stop  offset="1" style="stop-color:#000000"/>
		</radialGradient>
		<circle fill="url(#SVGID_1_)" cx="323.268" cy="117.419" r="9.468"/>
		
			<radialGradient id="SVGID_2_" cx="-24.0615" cy="-23.5879" r="13.6188" gradientTransform="matrix(-1 0 0 1 299.8945 139.1055)" gradientUnits="userSpaceOnUse">
			<stop  offset="0.4121" style="stop-color:#F7DA8B"/>
			<stop  offset="0.4817" style="stop-color:#EDCE81"/>
			<stop  offset="0.609" style="stop-color:#D3AC67"/>
			<stop  offset="0.7799" style="stop-color:#A9773D"/>
			<stop  offset="0.9858" style="stop-color:#702D04"/>
			<stop  offset="1" style="stop-color:#6C2800"/>
		</radialGradient>
		<polygon fill="url(#SVGID_2_)" points="323.386,100.894 323.02,116.479 312.749,106.729 322.5,117 311.423,117.366 322.5,117.732 
			312.214,128.539 323.02,118.252 323.386,124.553 323.753,118.252 336.162,130.142 324.271,117.732 336.489,117.366 324.271,117 
			328.679,112.072 323.753,116.479 		"/>
	</g>
	<g>
		<radialGradient id="SVGID_3_" cx="203.5" cy="170" r="62.5981" gradientUnits="userSpaceOnUse">
			<stop  offset="0" style="stop-color:#F7DA8B"/>
			<stop  offset="1" style="stop-color:#D28342"/>
		</radialGradient>
		<path fill="url(#SVGID_3_)" d="M195.965,122.501c0.745,0.146,1.436,0.248,1.996,0.248c1.35,0,2.623-0.576,2.661-1.271
			c0.04-0.695-0.813-0.874-1.609-0.874c-0.622,0-1.712,0.444-3.155,1.375c-6.461-1.896-21.474-10.133-37.344-10.133
			c-23.674,0-37.081,8.362-37.081,22.205c0,3.516,2.045,7.37,3.952,7.389c-2.046-0.337-2.382-4.31-2.382-7.348
			c0-14.857,24.608-20.815,35.452-20.815c13.881,0,29.2,7.333,36.831,9.091c-3.211,2.214-7.914,6.593-13.096,13.61
			c-1.286,1.74-2.651,3.735-4.124,5.855c-1.128,0.039-2.284,0.064-3.483,0.064c-1.734,0-3.54,0.045-5.364,0.143
			c7.157-14.521,1.651-23.134-2.899-24.017c-5.54-1.074-17.596-2.066-34.856,21.986c-2.575,3.569-4.689,10.297-4.082,16.279
			c-5.959,11.327-3.096,17.506,1.838,17.506c3.183,0,9.447-0.446,17.73-6.119c11.39-1.778,21.567-9.186,33.286-25.378
			c3.342-0.213,6.604-0.668,9.709-1.311c-7.681,11.509-10.434,19.238-5.668,21.685c2.272,1.175,6.715-2.357,9.798-5.063
			c-0.284,1.26-0.215,2.375,0.392,3.097c1.667,2.006,6.692-3.793,11.339-8.222c-1.43,1.886-3.196,6.255-1.31,7.964
			c1.721,1.56,8.036-4.154,16.556-12.186c-1.105,1.753-2.107,3.407-2.99,4.817c-2.248,3.602-6.669,10.889-11.743,18.024
			c-9.708-0.924-19.053-2.478-23.372-2.752c-8.501-0.515-20.14-0.953-27.331,14.361c2.979-4.191,6.655-12.95,27.071-11.559
			c7.932,0.548,15.484,1.29,22.366,1.703c-5.464,7.485-11.52,14.447-16.367,16.35c5.377-1.64,12.214-8.835,18.121-16.252
			c5.919,0.309,11.294,0.322,15.926-0.305c-5.69,7.93-12.136,15.545-17.244,17.55c5.78-1.751,13.247-9.927,19.433-17.9
			c2.356-0.454,4.494-1.105,6.367-2.02c-1.632,0.564-3.576,0.941-5.723,1.181c5.23-6.826,9.442-13.333,10.748-15.323
			c2.9-4.37,11.003-12.034,12.275-11.061c1.27,0.954-1.628,5.976-2.979,7.743c-1.371,1.749-6.099,8.838-10.389,8.918
			c2.801,0.616,10.17-4.151,12.831-7.885c2.682-3.714,3.257-8.044,1.808-9.137c-2.464-1.847-7.985,2.801-9.772,5.065
			c3.995-5.887,11.243-17.34,16.828-17.612c-9.279,0.002-17.335,14.371-22.032,21.902c-2.208,3.536-6.499,10.592-11.44,17.578
			c-4.612,0.308-9.97,0.076-15.309-0.383c5.521-7.121,10.019-14.074,11.376-16.143c2.9-4.369,10.925-12.144,12.194-11.171
			c1.252,0.955-1.548,6.106-2.897,7.854c-1.371,1.749-6.099,8.839-10.389,8.938c2.8,0.596,10.169-4.171,12.831-7.885
			c2.682-3.735,3.257-8.064,1.787-9.157c-2.443-1.847-7.965,2.801-9.753,5.084c3.996-5.905,11.243-17.358,16.827-17.632
			c-7.294,0.004-13.831,8.891-18.586,16.355c-6.552,5.349-15.125,13.589-16.274,12.764c-1.271-0.915,2.521-6.7,4.15-8.666
			c1.609-1.967,2.542-3.417,6.575-8.064c-1.795-0.49-3.922,1.504-5.823,3.657c0.401-0.975,0.507-2.021-0.176-2.604
			c-3.019-2.542-9.216,3.555-12.016,6.356c-1.686,1.686-3.206,4.152-3.791,6.285c-3.692,2.797-7.619,5.74-9.695,4.619
			c-1.187-0.631,0.286-10.926,9.855-21.935c7.289-2.059,13.273-5.242,16.48-9.05c4.47-5.302,5.601-7.963,4.728-8.838
			c-0.873-0.874-14.202,2.622-23.478,15.85c-0.627,0.895-1.225,1.767-1.8,2.623c-2.849,0.556-6.032,0.978-9.602,1.204
			c0.988-1.38,1.988-2.816,3-4.323C189.368,128.872,193.363,124.52,195.965,122.501z M198.993,120.981
			c0.715-0.02,1.211,0.08,1.211,0.537s-1.09,0.834-2.205,0.854c-0.406,0.009-0.948-0.094-1.545-0.242
			C197.595,121.317,198.434,120.993,198.993,120.981z M201.735,150.417c3.236-3.198,6.792-6.077,7.706-5.065
			c0.771,0.838,0.395,1.471-0.038,2.721c-1.184,1.393-2.241,2.723-3.021,3.357c-2.146,1.748-10.073,10.196-11.265,8.846
			C193.947,158.903,198.497,153.614,201.735,150.417z M195.46,138.638c10.604-11.46,19.078-17.266,19.912-16.114
			c0.836,1.152-2.071,4.874-4.792,8.07c-2.105,2.458-6.826,6.346-15.838,8.859C194.984,139.181,195.206,138.911,195.46,138.638z
			 M132.178,140.883c10.112-15.394,24.888-24.053,33.807-21.988c5.784,1.338,7.659,11.399,0.956,23.294
			c-3.011,0.244-6.014,0.661-8.802,1.304c0.198-0.332,0.398-0.652,0.596-1.002c5.701-10.071,4.072-15.672,0.1-15.672
			c-3.993,0-10.427,1.49-24.629,19.267c-2.556,3.204-4.547,6.149-6.073,8.832C127.703,150.833,128.806,146.014,132.178,140.883z
			 M155.207,144.285c-3.247,1.025-6.027,2.439-7.895,4.383c-3.018,3.158-4.785,6.277-2.72,6.356
			c1.917,0.074,7.566-2.106,12.909-10.487c2.585-0.74,5.619-1.376,9.09-1.752c-1.509,2.58-3.412,5.238-5.772,7.908
			c-6.398,7.228-11.443,12.641-16.109,16.358c-1.14,0.116-2.307,0.188-3.515,0.188c-5.793,0-10.985-3.907-12.622-9.931
			c1.542-3.251,3.661-6.844,6.406-10.647c10.686-14.796,19.007-19.007,23.992-19.007c5.006,0-0.695,10.725-2.701,14.718
			C155.938,143.028,155.578,143.663,155.207,144.285z M154.429,145.531c-3.455,5.27-7.87,8.937-9.538,8.937
			c-1.967,0,0.794-3.455,2.721-5.343C148.457,148.306,150.783,146.866,154.429,145.531z M129.278,173.198
			c-4.431,0-5.086-5.753-1.432-14.269c1.344,5.145,5.217,9.183,13.33,9.183c0.754,0,1.501-0.026,2.242-0.068
			C138.745,171.494,134.368,173.198,129.278,173.198z M148.741,166.391c4.241-3.189,8.957-7.74,14.025-14.246
			c2.661-3.421,4.679-6.612,6.184-9.568c1.77-0.123,3.634-0.178,5.595-0.146c1.041,0.018,2.082,0.008,3.119-0.021
			C171.162,151.731,162.493,163.22,148.741,166.391z"/>
		<radialGradient id="SVGID_4_" cx="203.5" cy="170" r="62.598" gradientUnits="userSpaceOnUse">
			<stop  offset="0" style="stop-color:#F7DA8B"/>
			<stop  offset="1" style="stop-color:#D28342"/>
		</radialGradient>
		<path fill="url(#SVGID_4_)" d="M240.111,131.155c0.217,0,0.435-0.001,0.651,0.016
			C240.549,131.146,240.331,131.145,240.111,131.155z"/>
		<radialGradient id="SVGID_5_" cx="203.5" cy="170" r="62.5978" gradientUnits="userSpaceOnUse">
			<stop  offset="0" style="stop-color:#F7DA8B"/>
			<stop  offset="1" style="stop-color:#D28342"/>
		</radialGradient>
		<path fill="url(#SVGID_5_)" d="M256.916,132.169c0.217,0,0.433-0.001,0.65,0.014C257.353,132.159,257.136,132.158,256.916,132.169
			z"/>
		<radialGradient id="SVGID_6_" cx="203.5" cy="170" r="62.598" gradientUnits="userSpaceOnUse">
			<stop  offset="0" style="stop-color:#F7DA8B"/>
			<stop  offset="1" style="stop-color:#D28342"/>
		</radialGradient>
		<path fill="url(#SVGID_6_)" d="M261.027,219.15c-3.245-3.721,3.17-8.859,7.418-20.477c7.231-19.774-2.18-19.553-2.18-19.553
			s4.53,4.11-0.452,18.587C264.136,202.577,255.985,213.37,261.027,219.15z"/>
		<radialGradient id="SVGID_7_" cx="203.5" cy="170" r="62.598" gradientUnits="userSpaceOnUse">
			<stop  offset="0" style="stop-color:#F7DA8B"/>
			<stop  offset="1" style="stop-color:#D28342"/>
		</radialGradient>
		<path fill="url(#SVGID_7_)" d="M341.701,137.01c-4.612-0.128-12.487,1.792-18.634,2.369c-0.302-0.742-0.764-1.319-1.263-1.77
			c0.727-3.764,0.211-6.732-2.19-7.829c-2.123-0.994-4.985-0.399-7.467,1.363c-0.735-9.608-6.131-12.088-9.375-12.088
			c-12.832,0-19.147,7.826-23.08,15.71c-3.953,7.885-4.826,24.967,2.621,24.967c3.849,0,8.13-3.069,11.711-6.794
			c0.907,1.819,2.229,3.408,4.097,4.493c-6.945,5.018-15.969,8.425-25.678,8.425c-5.424,0-11.031-0.924-16.512-1.411
			c11.479-15.347,11.64-17.036,17.266-20.502c-5.819-3.198-20.055,17.392-22.756,15.149c-1.371-1.113,9.965-11.436,10.243-12.706
			c0.258-1.252-0.278-1.649-1.191-2.562c-5.244,5.521-13.09,12.969-9.713,15.949c2.442,2.165,10.904-8.323,13.487-10.249
			c-6.522,8.467-8.582,11.669-10.579,14.694c-8.33-0.395-16.208,0.894-22.492,8.842c-3.934,5.005-5.818,12.175-2.065,13.665
			c3.773,1.488,12.831-2.442,26.059-19.96c0.389-0.515,0.764-1.015,1.132-1.502c5.672,0.447,11.479,1.396,17.002,1.343
			c9.433-0.094,19.299-3.282,26.839-8.645c1.427,0.619,3.123,0.978,5.139,0.978c4.715,0,9.026-4.358,12.128-9.027
			c3.176-1.007,5.84-3.583,6.682-6.505c0.374-1.296,0.387-2.364,0.19-3.25c7.421-0.023,15.441-1.123,18.737-0.701
			c7.985,1.032,12.156,3.793,12.573,8.858c0.237,2.96-1.848,9.891-10.468,9.354c8.104,0.735,11.778-4.21,11.521-9.572
			C355.425,142.888,350.758,137.248,341.701,137.01z M251.826,165.512c-2.363,3.495-18.18,23.244-23.483,20.603
			c-2.621-1.33-1.49-7.911,2.105-12.459c5.935-7.524,13.579-8.872,21.671-8.581C252.021,165.219,251.926,165.364,251.826,165.512z
			 M322.513,139.426c-0.394,0.031-0.783,0.06-1.159,0.079c0.125-0.443,0.229-0.876,0.324-1.303
			C322.002,138.534,322.291,138.94,322.513,139.426z M320.966,139.516c-0.712,0.026-1.398,0.033-2.026-0.003
			c-1.808-0.12-2.543-1.032-2.463-1.747c0.06-0.696,1.787-1.094,3.257-0.716c0.495,0.121,1.101,0.408,1.654,0.88
			C321.275,138.455,321.133,138.986,320.966,139.516z M319.218,130.436c2.29,0.926,2.826,3.764,2.277,6.911
			c-0.557-0.438-1.132-0.729-1.563-0.914c-1.45-0.615-4.668-0.556-4.886,1.152c-0.199,1.51,1.886,2.304,4.311,2.463
			c0.461,0.031,0.933,0.051,1.407,0.068c-0.141,0.397-0.289,0.793-0.455,1.183c-1.216,2.824-2.683,5.606-4.301,8.089
			c-1.588,0.409-3.301,0.405-4.974-0.223c-0.925-0.346-1.65-0.875-2.197-1.543c1.533-2.678,2.575-5.573,2.99-8.646
			c0.283-2.097,0.402-3.975,0.396-5.672C314.48,130.681,316.944,129.521,319.218,130.436z M311.418,138.937
			c-0.505,2.606-1.592,5.247-3.154,7.806c-1.141-2.251-0.73-5.593,1.182-9.256c0.783-1.483,1.627-2.774,2.504-3.85
			C311.944,135.259,311.793,137.013,311.418,138.937z M294.826,152.086c2.983-3.276,5.384-6.903,6.469-9.356
			c2.463-5.502,3.006-11.123,0.543-11.817c-2.443-0.695-7.09,3.059-8.759,8.063c-0.925,2.794-1.392,8.727,0.677,13.402
			c-4.345,4.408-8.827,6.684-11.243,6.585c-3.397-0.158-5.462-11.251,0.337-23.324c5.343-11.123,15.156-15.79,19.724-15.79
			c3.565,0,8.481,3.708,9.269,11.522c-1.71,1.298-3.215,3.151-4.125,5.439c-1.582,3.938-1.502,8.015,0.116,10.631
			c-2.214,3.417-5.286,6.658-8.983,9.448C297.176,155.817,295.714,154.229,294.826,152.086z M295.345,140.147
			c3.038-8.282,5.5-8.718,6.354-8.361c1.568,0.655,1.252,6.415-0.795,10.506c-1.803,3.641-4.018,6.707-6.31,9.193
			C293.606,148.632,293.604,144.881,295.345,140.147z M304.361,158.606c-1.454-0.03-3.037-0.405-4.52-1.148
			c3.515-2.611,6.479-5.706,8.607-9.19c0.646,0.746,1.452,1.322,2.426,1.653c1.535,0.522,3.114,0.555,4.613,0.238
			C312.113,155.1,308.139,158.67,304.361,158.606z M322.739,143.167c-0.57,2.417-2.885,4.842-5.781,5.921
			c1.702-2.703,2.996-5.43,3.701-7.412c0.189-0.524,0.356-1.039,0.51-1.548c0.53,0.015,1.064,0.025,1.604,0.026
			C322.989,140.976,323.021,141.97,322.739,143.167z"/>
		<radialGradient id="SVGID_8_" cx="203.5" cy="170" r="62.5979" gradientUnits="userSpaceOnUse">
			<stop  offset="0" style="stop-color:#F7DA8B"/>
			<stop  offset="1" style="stop-color:#D28342"/>
		</radialGradient>
		<path fill="url(#SVGID_8_)" d="M72.057,234.969c2.062,3.188,6.128,3.341,10.977,1.52c2.335,1.193,5.002,1.856,7.912,1.856
			c19.594,0,28.662-15.914,38.063-28.335c4.421,0.122,8.295-0.133,11.648-0.615c-0.119,0.134-0.234,0.254-0.354,0.388
			c-10.943,12.335-8.897,20.617-4.429,23.22c3.506,2.025,8.406-2.188,11.778-6.11c-0.725,2.046-0.882,4.191,0.834,5.018
			c3.362,1.592,9.941-5.962,13.109-12.433c2.126-0.354,4.703-1.374,7.498-2.913c-6.295,9.192-8.259,13.983-5.55,16.259
			c2.357,1.97,8.231-3.272,12.428-7.448c-1.566,2.573-2.257,4.977-0.293,6.396c2.312,1.66,7.641-3.892,12.05-8.487
			c-1.395,3.381-1.038,6.306,0.303,7.177c1.84,1.183,5.782-1.821,9.933-5.841c-1.056,3.44-1.041,6.222,1.191,6.933
			c2.808,0.885,5.301-2.859,7.696-6.42c-0.859,2.327-0.815,4.28,0.626,4.891c2.82,1.172,5.799-3.436,8.718-6.534
			c-1.846,3.594-2.085,5.799,0.101,6.832c2.358,1.139,8.071-5.82,11.24-8.978c-1.867,2.994-3.199,5.935-1.15,6.933
			c1.808,0.872,3.733-0.954,10.566-8.66c-1.067,1.959-3.229,6.587-5.931,12.413c-14.369,1.58-20.84,6.434-25.908,12.652
			c-2.244,2.76-8.699,14.261-0.695,17.874c7.627,3.438,19.783-12.094,27.668-27.07c0.561-1.066,1.168-2.176,1.792-3.301
			c2.597-0.215,5.323-0.294,8.237-0.294c1.893,0,3.719-0.062,5.482-0.174c1.854,4.226,3.748,8.688,3.595,13.203
			c-0.575,18.015-24.112,17.697-17.378-1.271c2.442-6.913,6.731-10.926,9.453-9.595c5.403,2.603-0.417,13.507-2.841,16.466
			c7.867-3.854,10.786-14.877,3.497-17.16c-3.059-0.973-7.448,0.793-10.945,9.892c-7.565,19.683,17.36,22.403,21.114,1.092
			c0.921-5.26-0.736-9.285-2.611-12.984c24.478-2.826,35.58-16.575,35.971-26.738c0.735-19.188-16.425-15.572-15.513-8.024
			c0.854-3.536,3.735-6.039,7.053-5.662c2.741,0.304,6.479,3.25,6.047,11.772c-0.679,13.43-14.964,25.157-33.854,28.071
			c-2.209-4.279-4.545-8.178-3.25-13.129c1.073-4.11,3.495-6.257,4.986-6.176c2.76,0.157-1.015,5.401-1.511,6.255
			c4.946-2.205,5.045-7.15,1.648-7.467c-2.403-0.22-7.468,2.661-8.679,8.878c-0.697,3.618,1.091,7.723,3.009,12.098
			c-1.743,0.153-3.514,0.243-5.313,0.243c-2.877,0-5.519,0.093-7.956,0.269c4.251-7.651,9.073-15.94,5.058-16.979
			c-1.371,3.177-10.211,13.771-11.62,12.855c-2.403-1.548,10.566-12.957,4.27-13.87c0.478,0.784-1.769,3.69-3.743,6.729
			c-3.298,2.272-9.836,10.168-11.313,9.3c-1.668-0.973,2.881-7.864,4.767-9.711c-4.011-2.126-11.142,10.414-12.91,9.56
			c-1.747-0.854,0.994-5.311,3.317-8.11c2.324-2.801,6.772-6.871,8.224-6.177c1.45,0.694-1.867,2.363-0.517,3.813
			c1.927,0,2.919-3.773,0.953-4.428c-4.375-1.451-9.351,2.788-12.135,7.197c-3.39,3.683-6.406,10.004-8.7,9.234
			c-1.04-0.342,0.21-5.546,3.9-12.456c2.969-3.227,5.56-6.2,6.965-7.571c4.11-4.033,16.901-17.678,14.101-19.624
			c-2.8-1.927-15.592,13.407-20.06,19.98c-1.058,1.556-2.198,3.411-3.264,5.354c-0.105-1.192-0.757-1.905-1.166-2.155
			c-1.926-1.191-5.998-0.356-10.03,4.509c-0.625,0.755-1.143,1.516-1.583,2.269c-4.662,4.348-10.442,10.875-12.121,9.913
			c-2.442-1.39,12.097-12.836,6.395-16.392c0.429,1.35-3.205,5.037-5.839,8.733c-5.293,4.507-11.054,10.092-12.731,8.229
			c-1.563-1.736,4.844-11.73,10.331-18.95c4.139-3.008,8.428-6.886,12.273-11.319c5.679-6.574,6.315-8.641,5.739-9.096
			c-2.065-1.67-9.852,4.944-19.404,18.073c-1.135,1.561-2.177,3.02-3.138,4.393c-2.935,1.916-5.827,3.386-8.271,3.869
			c1.612-3.475,2.162-6.544,0.583-7.566c-4.906-3.158-10.089,5.323-4.627,7.845c0.865,0.402,1.989,0.486,3.278,0.333
			c-3.146,5.932-9.582,12.902-12.037,11.763c-0.775-0.356,2.007-7.924,6.655-12.612c-3.079,0.477-4.887,2.643-6.396,4.907
			c-0.314,0.464-0.649,1.04-0.964,1.667c-3.631,3.846-9.514,9.627-12.21,7.157c-2.821-2.621-2.676-12.719,7.295-22.529
			c0.424-0.418,0.835-0.812,1.249-1.213c6.18-1.352,10.143-3.356,12.198-4.448c3.813-2.025,9.514-8.004,6.792-9.931
			c-2.598-1.839-10.94,2.009-21.819,13.784c-3.626,0.571-7.703,0.931-12.084,0.933c0.178-0.232,0.357-0.465,0.536-0.693
			c3.688-4.688,9.464-12.325,14.327-16.861c0.741,0.107,1.448,0.199,2.099,0.256c3.734,0.317,8.837-2.581,5.563-4.449
			c-1.794-1.017-5.015,0.225-8.878,3.152c-11.34-2.309-20.221-2.743-27.209-1.983c-1.605-2.492-4.485-4.299-8.721-5.498
			c-12.335-3.516-25.266,8.659-31.917,24.769c-1.956,4.736-2.606,9.329-2.215,13.462C70.636,224.814,68.723,229.79,72.057,234.969z
			 M229.899,234.452c-11.838,25.482-22.861,28.62-25.006,27.35c-3.595-2.106-3.636-8.761,3.137-16.584
			c7.182-8.294,14.251-11.517,22.762-12.695C230.5,233.155,230.202,233.795,229.899,234.452z M223.98,192.265
			c1.071,0.735-9.852,14.599-13.844,18.354c-0.985,0.931-2.604,2.648-4.526,4.685c1.057-1.741,2.237-3.545,3.573-5.381
			C217.068,199.059,222.928,191.53,223.98,192.265z M200.225,215.722c0.515,0.245,0.665,1.127,0.575,2.268
			c-0.77,1.478-1.474,2.978-2.05,4.425c-4.28,4.258-8.363,7.817-9.806,7.212c-1.35-0.577,0.975-5.521,3.159-7.925
			C194.286,219.278,198.16,214.749,200.225,215.722z M178.577,208.154c5.56-6.335,12.611-15.214,13.306-14.658
			c0.676,0.558-3.97,6.297-5.402,7.807c-0.618,0.645-4.473,4.506-9.27,8.469C177.69,209.188,178.149,208.643,178.577,208.154z
			 M158.297,218.721c-4.39-1.926,0.597-8.084,3.457-6.714c1.806,0.867,1.254,3.729-0.385,6.998
			C160.218,219.17,159.176,219.104,158.297,218.721z M163.468,194.761c0.935,0.993-1.973,6.448-6.799,8.99
			c-2.118,1.126-5.768,2.466-10.506,3.514C155.641,198.325,162.632,193.835,163.468,194.761z M91.065,237.45
			c-1.819,0-4.106-0.542-6.417-1.627c9.166-4.103,20.515-14.448,26.575-24.59c0.424-0.711,0.8-1.387,1.184-2.067
			c3.649,0.015,7.42,0.188,11.25,0.538c0.913,0.083,1.788,0.138,2.66,0.19C108.944,234.635,96.867,237.45,91.065,237.45z
			 M90.945,223.031c1.133,0.119,2.542-0.438,3.933-3.237c-1.867,2.204-2.563,2.762-3.893,2.303c-1.218-0.417-1.807-3.49,1.18-10.979
			c4.879-1.115,10.613-1.763,16.812-1.916c-0.309,0.483-0.625,0.969-0.951,1.456c-9.089,13.572-18.303,21.193-25.126,24.234
			c-4.056-2.417-7.815-6.564-8.761-12.534c1.372-1.966,3.222-3.934,5.505-5.861c2.01-1.707,4.891-3.12,8.382-4.246
			C86.638,217.854,88.188,222.742,90.945,223.031z M109.552,208.294c-7.082,0.115-12.637,0.825-16.953,1.767
			c0.159-0.377,0.315-0.752,0.492-1.15c5.393-12.194,13.389-17.429,21.775-19.308C116.611,194.36,114.036,201.088,109.552,208.294z
			 M151.843,187.995c0.971,0.558-0.941,3.261-6.397,2.726C148.082,188.407,150.386,187.152,151.843,187.995z M142.529,191.114
			c-4.553,3.664-9.874,9.507-14.799,16.742c-0.258,0.377-0.509,0.733-0.765,1.102c-1.121-0.039-2.252-0.096-3.406-0.188
			c-3.859-0.305-7.396-0.455-10.647-0.488c4.668-8.554,5.955-14.739,3.798-19.04C126.034,187.687,135.632,189.921,142.529,191.114z
			 M76.746,207.955c9.93-21.312,21.37-26.495,29.871-24.45c4.108,0.993,6.6,2.784,7.838,5.155
			c-19.792,2.853-23.33,15.691-25.435,20.627c-0.272,0.632-0.493,1.259-0.688,1.886c-5.58,1.714-8.215,3.672-9.124,4.312
			c-0.828,0.566-3.179,2.357-5.26,4.914C73.765,216.829,74.542,212.69,76.746,207.955z M81.373,235.508
			c-4.395,1.601-7.592,1.125-8.779-1.017c-1.967-3.526-1.452-7.424,1.031-11.354C74.594,228.455,77.376,232.836,81.373,235.508z"/>
		<radialGradient id="SVGID_9_" cx="203.499" cy="170" r="62.5975" gradientUnits="userSpaceOnUse">
			<stop  offset="0" style="stop-color:#F7DA8B"/>
			<stop  offset="1" style="stop-color:#D28342"/>
		</radialGradient>
		<path fill="url(#SVGID_9_)" d="M192.46,203.389c-2.185-1.828-9.038,7.05-4.568,9.155
			C186.243,209.048,194.584,205.175,192.46,203.389z"/>
		<radialGradient id="SVGID_10_" cx="203.5205" cy="170" r="62.5869" gradientUnits="userSpaceOnUse">
			<stop  offset="0" style="stop-color:#F7DA8B"/>
			<stop  offset="1" style="stop-color:#D28342"/>
		</radialGradient>
		<path fill="url(#SVGID_10_)" d="M258.805,220.79c-1.743-0.333-3.713,6.141-0.539,5.98
			C256.443,225.431,260.503,221.117,258.805,220.79z"/>
		<radialGradient id="SVGID_11_" cx="203.5" cy="170" r="62.598" gradientUnits="userSpaceOnUse">
			<stop  offset="0" style="stop-color:#F7DA8B"/>
			<stop  offset="1" style="stop-color:#D28342"/>
		</radialGradient>
		<path fill="url(#SVGID_11_)" d="M336.895,82.985c-1.827-0.026-3.604-0.022-5.342-0.008c0.116-1.019,0.178-2.063,0.178-3.129
			c0-17.36-15.771-25.662-28.72-25.662c-12.971,0-24.887,9.792-24.887,22.325c0,11.817,7.11,19.146,16.047,19.146
			c7.431,0,13.223-4.146,14.185-11.975c5.707,1.434,13.574,2.04,22.138,2.219c-3.146,13.424-17.183,20.503-30.384,20.958
			c-10.069,0.361-28.876-3.956-40.885-6.811c0.065-0.626,0.109-1.259,0.109-1.908c0-14.182-8.242-20.121-20.914-20.934
			c-17.24-1.112-33.745,14.102-54.581,14.102c-3.01,0-5.866-0.59-8.516-1.58c2.835-4.553,3.611-9.831,3.611-14.528
			c0-11.222-6.653-16.286-14.36-16.286c-4.468,0-7.706,4.985-7.706,10.328c0,7.569,6.897,16.715,15.811,21.411
			c-4.96,5.089-13.213,7.765-24.927,7.765c-9.533,0-17.083-3.483-22.458-8.468c3.771-6.707,5.039-15.092,5.039-24.561
			c0-9.197-3.238-13.301-8.5-13.301c-3.596,0-7.449,4.799-7.449,17.849c0,8.771,3.02,15.976,8.121,21.229
			c-3.689,5.02-8.465,8.185-13.47,10.17c-4.826-11.948-15.506-16.502-25.655-16.502c-9.812,0-17.67,2.443-17.67,9.017
			c0,6.575,6.7,12.87,19.053,12.87c9.933,0,17.787-1.22,23.991-3.451c1.478,4.055,2.24,8.551,2.24,13.224
			c0,6.484-2.458,12.298-5.452,17.512c-2.792-2.252-6.29-3.483-10.385-3.483c-13.904,0-15.354,9.859-20.478,18.757
			c-5.143,8.917-10.407,15.557-21.548,15.557c-11.164,0-14.36-8.838-14.36-18.352c0-9.494,5.501-17.122,11.717-17.122
			c6.238,0,8.68,5.522,8.68,10.964c0,7.985-2.185,10.587-6.138,14.619c5.522-2.721,7.369-6.297,7.369-14.897
			c0-6.733-3.674-11.64-10.07-11.64c-6.395,0-12.711,6.914-12.711,18.214c0,11.301,4.29,19.981,17.081,19.981
			c10.01,0,15.711-8.839,20.974-17.738c5.145-8.738,7.27-17.941,19.405-17.941c3.371,0,6.961,1.259,9.988,3.901
			c-3.195,5.402-6.871,10.143-8.821,14.292c-1.332-0.725-3.089-1.161-5.457-1.086c-5.701,0.159-7.885,4.627-7.885,9.97
			c0,9.554,7.19,18.67,15.334,18.67c8.141,0,14.795-8.759,14.795-22.959c0-8.005-2.153-14.36-6.027-18.379
			c2.632-4.573,4.677-10.447,4.677-18.802c0-5.271-0.744-9.768-2.045-13.581c6.401-2.464,10.955-6.06,14.128-10.563
			c6.062,5.515,14.629,8.553,24.424,8.553c13.942,0,21.731-4.064,25.982-9.549c3.253,1.492,6.729,2.379,10.206,2.379
			c18.153,0,35.096-15.512,54.302-15.512c9.454,0,19.994,6.315,19.994,19.981c0,0.562-0.037,1.111-0.092,1.655
			c-5.519-1.314-9.48-2.284-10.27-2.271c-1.547,0.025-4.928-0.433-7.802,0.515c-0.755-5.602-7.803-9.274-13.49-9.274
			c-3.933,0-13.485,1.568-13.485,13.307c0,11.738,8.063,18.928,18.929,18.928c10.205,0,25-7.761,26.705-20.513
			c11.737,2.987,29.442,7.721,41.559,7.721c13.304,0,27.139-8.572,30.321-22.395c1.864,0.035,3.758,0.051,5.669,0.051
			c19.623,0,31.619,7.368,31.619,20.754c0,12.454-10.148,20.504-18.393,20.504c-7.606,0-15.67-4.039-15.492-13.75
			c0.22-12.076,12.435-8.581,16.466-6.475c0.915-1.151,0.836-1.668,0.299-3.695c-9.018-5.461-17.776-0.377-17.776,10.21
			c0,10.447,8.897,14.18,16.685,14.18c6.018,0,20.14-6.494,20.14-21.41C370.263,90.175,354.512,83.264,336.895,82.985z
			 M112.265,153.813c0,15.929-8.607,21.887-14.129,21.887c-5.502,0-13.744-5.859-13.744-17.597c0-5.521,3.277-8.461,6.435-8.461
			c2.068,0,3.615,0.376,4.797,0.952c-0.504,1.342-0.791,2.621-0.765,3.835c0.1,4.707,2.324,5.68,3.496,4.866
			c1.19-0.814,2.442-3.616,1.41-6.078c-0.591-1.388-1.479-2.783-2.989-3.779c2.044-4.005,6.273-7.619,9.71-13.225
			C109.875,139.937,112.265,145.705,112.265,153.813z M96.158,150.858c3.688,2.208,2.874,6.698,1.978,7.205
			c-1.172,0.656-2.581-1.667-2.581-3.873C95.555,153.008,95.776,151.912,96.158,150.858z M84.503,104.674
			c-12.173,0-18.077-5.893-17.929-10.864c0.145-4.823,5.781-8.507,17.161-8.507c11.974,0,20.31,6.758,24.388,16.375
			C99.091,104.999,89.523,104.674,84.503,104.674z M115.713,69.5c0-12.553,3.477-16.982,6.436-16.982
			c4.807,0,7.415,4.488,7.415,12.831c0,10.248-2.117,17.829-5.466,23.438C118.6,83.111,115.713,75.828,115.713,69.5z
			 M157.337,69.162c0-7.41,5.668-9.74,7.336-9.74c1.647,0,13.671,0.186,13.671,15.42c0,5.813-1.45,10.613-4.378,14.335
			C164.017,84.824,157.337,74.829,157.337,69.162z M232.282,120.492c-9.892,0-18.062-8.329-18.062-18.142
			c0-9.811,8.429-11.659,12.838-11.659c4.461,0,9.963,4.372,11.57,8.358c-0.973,0.658-1.793,1.584-2.315,2.903
			c-2.204,5.522,1.352,4.867,3.198,1.272c0.686-1.341,1.012-2.619,1.056-3.823c1.945-0.753,4.49-1.195,7.313-1.195
			c1.671,0,5.556,0.926,10.641,2.216C256.887,112.812,241.634,120.492,232.282,120.492z M238.639,102.967
			c-2.504,4.191-2.682,1.748-1.709-0.655c0.318-0.811,1.039-1.535,2.053-2.145C239.199,101.187,239.119,102.15,238.639,102.967z
			 M308.481,82.069c0.008-0.245,0.029-0.48,0.029-0.731c0-6.655-9.314-9.991-9.314-4.708c0,3.268,3.228,5.438,8.428,6.86
			c-1.439,7.988-9.148,10.478-14.604,9.527c-6.038-1.054-14.168-8.461-14.108-17.261c0.061-11.122,11.884-21.059,24.179-21.059
			c12.314,0,28.058,8.288,28.058,25.449c0,0.973-0.058,1.915-0.158,2.835C321.869,83.068,314.084,83.459,308.481,82.069z
			 M307.818,81.911c-3.134-0.885-5.531-2.394-7.012-4.942c-2.205-3.755,7.076-1.708,7.076,3.792
			C307.883,81.162,307.847,81.532,307.818,81.911z"/>
		<radialGradient id="SVGID_12_" cx="203.5" cy="170" r="62.5979" gradientUnits="userSpaceOnUse">
			<stop  offset="0" style="stop-color:#F7DA8B"/>
			<stop  offset="1" style="stop-color:#D28342"/>
		</radialGradient>
		<path fill="url(#SVGID_12_)" d="M332.822,172.344c-32.434,0-33.148,50.348-11.639,50.348c8.838,0,11.738-7.606,7.965-10.764
			c0.357,3.952-0.616,7.448-7.786,7.448c-17.955,0-19.921-45.542,11.56-45.542c9.831,0,20.497,5.526,20.497,21.198
			c0,15.69-12.744,30.236-20.272,36.294c-4.206,3.358-13.681,8.774-20.543,13.554c-6.14-3.949-14.061-6.277-22.523-6.277
			c-13.1,0-31.582,10.423-41.434,26.664c-2.035-0.478-4.191-0.745-6.474-0.745c-16.502,0-27.865,5.824-35.081,13.64
			c-5.405-3.589-12.977-5.933-23.153-5.933c-3.386,0-6.586,0.436-9.595,1.195c-3.846-22.066-24.149-27.473-43.395-27.473
			c-13.359,0-28.305,8.397-32.293,21.326c-1.019-0.125-2.05-0.213-3.101-0.213c-12.752,0-26.478,8.502-42.743,8.502
			c-6.991,0-21.955-2.065-21.955-21.869c0-11.997,8.745-17.862,14.467-17.862c5.719,0,17.438,7.535,11.836,24.317
			c5.601-8.063,0.875-25.045-11.739-25.045c-8.42,0-15.333,8.321-15.333,18.213c0,16.028,8.839,24.43,22.862,24.43
			c17.537,0,31.46-10.108,42.663-10.108c0.859,0,1.827,0.079,2.861,0.242c-0.656,2.351-0.957,4.844-0.816,7.463
			c0.655,12.018,4.965,20.001,12.612,20.001c3.416,0,7.806-3.237,7.806-8.401c0-10.021-8.287-18.002-18.747-19.578
			c4.375-12.216,19.352-20.437,31.512-20.437c21.485,0,38.48,10.108,42.45,26.776c-15.124,4.273-25.13,16.848-28.34,24.439
			c-2.384,5.642-1.331,19.107,6.396,19.107c6.316,0,23.656-7.189,23.656-35.91c0-2.329-0.165-4.499-0.451-6.548
			c2.991-0.83,6.102-1.311,9.287-1.311c8.962,0,16.382,2.456,21.987,6.117c-5.53,6.618-8.292,14.432-8.838,21.307
			c-0.755,9.712,2.88,17.576,9.374,17.576c5.343,0,11.897-8.063,11.897-20.06c0-6.633-2.843-13.936-9.611-19.142
			c6.6-7.466,16.107-13.035,28.103-13.035c3.667,0,7.211,0.511,10.521,1.425c-3.367,6.302-5.436,13.384-5.436,21.02
			c0,9.018,3.06,19.267,13.823,19.267c8.243,0,14.102-8.66,14.102-18.65c0-8.505-7.545-20.486-20.386-23.864
			c9.678-15.644,27.662-25.314,40.982-25.314c8.037,0,15.323,2.148,21.076,5.58c-0.581,0.417-1.146,0.829-1.671,1.232
			c-4.005,3.065-6.113,5.891-6.65,9.862c-2.27-0.982-4.778-1.56-7.073-1.56c-17.479,0-16.506,36.783,8.063,36.783
			c8.144,0,20.716-7.011,20.716-26.972c0-7.867-4.337-14.69-11.114-19.44c6.336-4.334,14.358-9.067,18.86-12.715
			c8.242-6.654,22.066-19.406,22.066-37.957C354.631,176.376,342.119,172.344,332.822,172.344z M117.355,287.046
			c0,3.237-2.477,7.634-7.202,7.634c-4.471,0-11.375-3.642-12.07-19.253c-0.113-2.602,0.26-5.089,1.021-7.434
			C106.676,269.392,117.355,275.108,117.355,287.046z M174.175,281.386c0,30.488-19.493,35.143-22.908,35.143
			c-6.813,0-7.853-13.076-5.628-18.143c3.393-7.68,14.319-19.139,27.939-23.307C173.962,277.095,174.175,279.194,174.175,281.386z
			 M217.855,298.466c0,11.044-6.945,19.451-11.592,19.451c-6.337,0-9.261-7.653-8.03-16.75c0.895-6.573,4.042-14.082,9.198-20.447
			C214.172,285.717,217.855,292.511,217.855,298.466z M268.45,289.449c0,12.077-7.17,17.703-12.87,17.703s-13.055-3.7-13.055-18.24
			c0-7.729,2.067-14.803,5.443-21.035C259.798,271.387,268.45,280.12,268.45,289.449z M324.343,264.919
			c0,17.776-12.613,25.762-20.419,25.762c-21.51,0-24.967-33.904-7.707-33.904c2.241,0,4.634,0.615,6.773,1.6
			c-0.049,1.419,0.063,2.976,0.338,4.736c1.271,7.925,6.992,8.698,6.992,1.768c0-3.121-2.767-5.896-6.324-7.659
			c0.816-3.212,2.783-6.559,6.362-9.223c0.692-0.518,1.435-1.05,2.201-1.587C319.813,251.119,324.343,257.927,324.343,264.919z
			 M303.689,258.721c3.382,1.731,5.968,4.377,5.968,6.928c0,6.156-4.833,2.827-5.886-2.396
			C303.497,261.885,303.451,260.337,303.689,258.721z"/>
	</g>
	<g>
		
			<radialGradient id="SVGID_13_" cx="46.8604" cy="66.0923" r="16.9971" gradientTransform="matrix(0 -1 -1 0 135.0938 135.0938)" gradientUnits="userSpaceOnUse">
			<stop  offset="0.1439" style="stop-color:#F7DA8B"/>
			<stop  offset="0.2111" style="stop-color:#D4BB77"/>
			<stop  offset="0.3291" style="stop-color:#9C8A58"/>
			<stop  offset="0.4478" style="stop-color:#6D603D"/>
			<stop  offset="0.5648" style="stop-color:#453D27"/>
			<stop  offset="0.6797" style="stop-color:#272316"/>
			<stop  offset="0.7919" style="stop-color:#110F0A"/>
			<stop  offset="0.9001" style="stop-color:#040402"/>
			<stop  offset="1" style="stop-color:#000000"/>
		</radialGradient>
		<circle fill="url(#SVGID_13_)" cx="69.003" cy="88.234" r="16.997"/>
		
			<radialGradient id="SVGID_14_" cx="45.624" cy="62.6768" r="24.4482" gradientTransform="matrix(0 -1 -1 0 135.0938 135.0938)" gradientUnits="userSpaceOnUse">
			<stop  offset="0.4121" style="stop-color:#F7DA8B"/>
			<stop  offset="0.4817" style="stop-color:#EDCE81"/>
			<stop  offset="0.609" style="stop-color:#D3AC67"/>
			<stop  offset="0.7799" style="stop-color:#A9773D"/>
			<stop  offset="0.9858" style="stop-color:#702D04"/>
			<stop  offset="1" style="stop-color:#6C2800"/>
		</radialGradient>
		<polygon fill="url(#SVGID_14_)" points="98.67,88.446 70.688,87.788 88.194,69.351 69.757,86.857 69.097,66.971 68.44,86.857 
			49.042,68.389 67.509,87.788 56.197,88.446 67.509,89.105 46.164,111.38 68.44,90.035 69.097,111.968 69.757,90.035 
			78.602,97.949 70.688,89.105 		"/>
	</g>
	<g>
		
			<radialGradient id="SVGID_15_" cx="-139.4199" cy="-38.8809" r="9.1301" gradientTransform="matrix(0 -1 -1 0 135.0938 135.0938)" gradientUnits="userSpaceOnUse">
			<stop  offset="0.1439" style="stop-color:#F7DA8B"/>
			<stop  offset="0.2111" style="stop-color:#D4BB77"/>
			<stop  offset="0.3291" style="stop-color:#9C8A58"/>
			<stop  offset="0.4478" style="stop-color:#6D603D"/>
			<stop  offset="0.5648" style="stop-color:#453D27"/>
			<stop  offset="0.6797" style="stop-color:#272316"/>
			<stop  offset="0.7919" style="stop-color:#110F0A"/>
			<stop  offset="0.9001" style="stop-color:#040402"/>
			<stop  offset="1" style="stop-color:#000000"/>
		</radialGradient>
		<circle fill="url(#SVGID_15_)" cx="173.975" cy="274.514" r="9.13"/>
		
			<radialGradient id="SVGID_16_" cx="-140.0845" cy="-40.7153" r="13.1328" gradientTransform="matrix(0 -1 -1 0 135.0938 135.0938)" gradientUnits="userSpaceOnUse">
			<stop  offset="0.4121" style="stop-color:#F7DA8B"/>
			<stop  offset="0.4817" style="stop-color:#EDCE81"/>
			<stop  offset="0.609" style="stop-color:#D3AC67"/>
			<stop  offset="0.7799" style="stop-color:#A9773D"/>
			<stop  offset="0.9858" style="stop-color:#702D04"/>
			<stop  offset="1" style="stop-color:#6C2800"/>
		</radialGradient>
		<polygon fill="url(#SVGID_16_)" points="189.912,274.628 174.88,274.274 184.284,264.371 174.38,273.774 174.026,263.093 
			173.673,273.774 163.252,263.854 173.173,274.274 167.096,274.628 173.173,274.981 161.707,286.947 173.673,275.481 
			174.026,287.264 174.38,275.481 179.131,279.732 174.88,274.981 		"/>
	</g>
	<g>
		
			<radialGradient id="SVGID_17_" cx="-154.5146" cy="-214.7676" r="20.4702" gradientTransform="matrix(0 1 1 0 550.1777 453.084)" gradientUnits="userSpaceOnUse">
			<stop  offset="0.1439" style="stop-color:#F7DA8B"/>
			<stop  offset="0.2111" style="stop-color:#D4BB77"/>
			<stop  offset="0.3291" style="stop-color:#9C8A58"/>
			<stop  offset="0.4478" style="stop-color:#6D603D"/>
			<stop  offset="0.5648" style="stop-color:#453D27"/>
			<stop  offset="0.6797" style="stop-color:#272316"/>
			<stop  offset="0.7919" style="stop-color:#110F0A"/>
			<stop  offset="0.9001" style="stop-color:#040402"/>
			<stop  offset="1" style="stop-color:#000000"/>
		</radialGradient>
		<path fill="url(#SVGID_17_)" d="M335.409,319.039c11.305,0,20.472-9.164,20.472-20.469c0-11.309-9.167-20.471-20.472-20.471
			s-20.47,9.162-20.47,20.471C314.939,309.875,324.104,319.039,335.409,319.039z"/>
		
			<radialGradient id="SVGID_18_" cx="-156.0049" cy="-218.8794" r="29.4436" gradientTransform="matrix(0 1 1 0 550.1777 453.084)" gradientUnits="userSpaceOnUse">
			<stop  offset="0.4121" style="stop-color:#F7DA8B"/>
			<stop  offset="0.4817" style="stop-color:#EDCE81"/>
			<stop  offset="0.609" style="stop-color:#D3AC67"/>
			<stop  offset="0.7799" style="stop-color:#A9773D"/>
			<stop  offset="0.9858" style="stop-color:#702D04"/>
			<stop  offset="1" style="stop-color:#6C2800"/>
		</radialGradient>
		<polygon fill="url(#SVGID_18_)" points="299.681,298.313 333.38,299.104 312.297,321.309 334.501,300.226 335.296,324.175 
			336.087,300.226 359.449,322.468 337.209,299.104 350.832,298.313 337.209,297.52 362.916,270.692 336.087,296.398 
			335.296,269.983 334.501,296.398 323.85,286.869 333.38,297.52 		"/>
	</g>
	
		<radialGradient id="SVGID_19_" cx="71.6914" cy="-81.6094" r="12.8958" gradientTransform="matrix(-1 0 0 1 299.8945 139.1055)" gradientUnits="userSpaceOnUse">
		<stop  offset="0.1439" style="stop-color:#F7DA8B"/>
		<stop  offset="0.2111" style="stop-color:#D4BB77"/>
		<stop  offset="0.3291" style="stop-color:#9C8A58"/>
		<stop  offset="0.4478" style="stop-color:#6D603D"/>
		<stop  offset="0.5648" style="stop-color:#453D27"/>
		<stop  offset="0.6797" style="stop-color:#272316"/>
		<stop  offset="0.7919" style="stop-color:#110F0A"/>
		<stop  offset="0.9001" style="stop-color:#040402"/>
		<stop  offset="1" style="stop-color:#000000"/>
	</radialGradient>
	<circle fill="url(#SVGID_19_)" cx="228.203" cy="57.495" r="12.896"/>
	
		<radialGradient id="SVGID_20_" cx="70.7529" cy="-84.2007" r="18.5487" gradientTransform="matrix(-1 0 0 1 299.8945 139.1055)" gradientUnits="userSpaceOnUse">
		<stop  offset="0.4121" style="stop-color:#F7DA8B"/>
		<stop  offset="0.4817" style="stop-color:#EDCE81"/>
		<stop  offset="0.609" style="stop-color:#D3AC67"/>
		<stop  offset="0.7799" style="stop-color:#A9773D"/>
		<stop  offset="0.9858" style="stop-color:#702D04"/>
		<stop  offset="1" style="stop-color:#6C2800"/>
	</radialGradient>
	<polygon fill="url(#SVGID_20_)" points="228.364,34.986 227.865,56.216 213.878,42.935 227.158,56.923 212.072,57.423 
		227.158,57.922 213.147,72.639 227.865,58.629 228.364,67.211 228.864,58.629 245.766,74.823 229.569,57.922 246.211,57.423 
		229.569,56.923 235.574,50.212 228.864,56.216 	"/>
	<g>
		
			<radialGradient id="SVGID_21_" cx="249.3105" cy="62.043" r="9.4688" gradientTransform="matrix(-1 0 0 1 299.8945 139.1055)" gradientUnits="userSpaceOnUse">
			<stop  offset="0.1439" style="stop-color:#F7DA8B"/>
			<stop  offset="0.2111" style="stop-color:#D4BB77"/>
			<stop  offset="0.3291" style="stop-color:#9C8A58"/>
			<stop  offset="0.4478" style="stop-color:#6D603D"/>
			<stop  offset="0.5648" style="stop-color:#453D27"/>
			<stop  offset="0.6797" style="stop-color:#272316"/>
			<stop  offset="0.7919" style="stop-color:#110F0A"/>
			<stop  offset="0.9001" style="stop-color:#040402"/>
			<stop  offset="1" style="stop-color:#000000"/>
		</radialGradient>
		<circle fill="url(#SVGID_21_)" cx="50.584" cy="201.147" r="9.469"/>
		
			<radialGradient id="SVGID_22_" cx="248.6211" cy="60.1406" r="13.6188" gradientTransform="matrix(-1 0 0 1 299.8945 139.1055)" gradientUnits="userSpaceOnUse">
			<stop  offset="0.4121" style="stop-color:#F7DA8B"/>
			<stop  offset="0.4817" style="stop-color:#EDCE81"/>
			<stop  offset="0.609" style="stop-color:#D3AC67"/>
			<stop  offset="0.7799" style="stop-color:#A9773D"/>
			<stop  offset="0.9858" style="stop-color:#702D04"/>
			<stop  offset="1" style="stop-color:#6C2800"/>
		</radialGradient>
		<polygon fill="url(#SVGID_22_)" points="50.702,184.622 50.336,200.208 40.066,190.457 49.816,200.729 38.74,201.095 
			49.816,201.461 39.53,212.268 50.336,201.98 50.702,208.281 51.069,201.98 63.479,213.87 51.587,201.461 63.806,201.095 
			51.587,200.729 55.996,195.801 51.069,200.208 		"/>
	</g>
	<circle fill="#D28342" cx="122.08" cy="43.368" r="1.952"/>
	<circle fill="#D28342" cx="23.158" cy="175.61" r="1.952"/>
	<circle fill="#D28342" cx="45.025" cy="252.665" r="1.952"/>
	<circle fill="#D28342" cx="135.617" cy="266.202" r="1.953"/>
	<circle fill="#D28342" cx="288.685" cy="306.812" r="1.953"/>
	<circle fill="#D28342" cx="298.057" cy="226.633" r="1.952"/>
	<circle fill="#D28342" cx="79.387" cy="291.192" r="1.952"/>
	<circle fill="#D28342" cx="183.515" cy="246.417" r="1.952"/>
	<circle fill="#D28342" cx="86.677" cy="253.706" r="1.952"/>
	<circle fill="#D28342" cx="277.231" cy="49.615" r="1.953"/>
	<circle fill="#D28342" cx="45.025" cy="87.102" r="1.952"/>
	<circle fill="#D28342" cx="144.988" cy="85.019" r="1.952"/>
	<circle fill="#D28342" cx="123.121" cy="108.968" r="1.952"/>
	<circle fill="#D28342" cx="196.011" cy="107.927" r="1.952"/>
	<circle fill="#D28342" cx="290.768" cy="77.73" r="1.952"/>
	<circle fill="#D28342" cx="330.336" cy="195.395" r="1.953"/>
	<circle fill="#D28342" cx="173.103" cy="186.023" r="1.952"/>
	<circle fill="#D28342" cx="68.975" cy="120.422" r="1.952"/>
	<circle fill="#D28342" cx="73.14" cy="184.981" r="1.952"/>
	<circle fill="#D28342" cx="101.254" cy="71.482" r="1.953"/>
	<circle fill="#D28342" cx="192.887" cy="71.482" r="1.952"/>
	<circle fill="#D28342" cx="267.859" cy="122.505" r="1.952"/>
	<circle fill="#D28342" cx="293.892" cy="180.816" r="1.952"/>
	<circle fill="#D28342" cx="352.203" cy="248.5" r="1.952"/>
	<circle fill="#D28342" cx="362.616" cy="167.28" r="1.953"/>
	<circle fill="#D28342" cx="344.914" cy="66.276" r="1.952"/>
	<circle fill="#D28342" cx="64.81" cy="43.368" r="1.952"/>
	<circle fill="#D28342" cx="180.392" cy="308.895" r="1.952"/>
	<circle fill="#D28342" cx="126.245" cy="305.771" r="1.952"/>
	<circle fill="#D28342" cx="247.034" cy="197.478" r="1.953"/>
	<radialGradient id="SVGID_23_" cx="108.75" cy="101.75" r="28.75" gradientUnits="userSpaceOnUse">
		<stop  offset="0" style="stop-color:#FFFFFF"/>
		<stop  offset="1" style="stop-color:#000000"/>
	</radialGradient>
	<circle fill="url(#SVGID_23_)" cx="108.75" cy="101.75" r="28.75"/>
	<radialGradient id="SVGID_24_" cx="228.2305" cy="57.4229" r="7.6934" gradientUnits="userSpaceOnUse">
		<stop  offset="0" style="stop-color:#FFFFFF"/>
		<stop  offset="1" style="stop-color:#000000"/>
	</radialGradient>
	<circle fill="url(#SVGID_24_)" cx="228.23" cy="57.422" r="7.693"/>
	<radialGradient id="SVGID_25_" cx="334.75" cy="298.75" r="11.75" gradientUnits="userSpaceOnUse">
		<stop  offset="0" style="stop-color:#FFFFFF"/>
		<stop  offset="1" style="stop-color:#000000"/>
	</radialGradient>
	<circle fill="url(#SVGID_25_)" cx="334.75" cy="298.75" r="11.75"/>
	<radialGradient id="SVGID_26_" cx="98.75" cy="268.75" r="11.75" gradientUnits="userSpaceOnUse">
		<stop  offset="0" style="stop-color:#FFFFFF"/>
		<stop  offset="1" style="stop-color:#000000"/>
	</radialGradient>
	<circle fill="url(#SVGID_26_)" cx="98.75" cy="268.75" r="11.75"/>
	<radialGradient id="SVGID_27_" cx="174.75" cy="274.75" r="11.75" gradientUnits="userSpaceOnUse">
		<stop  offset="0" style="stop-color:#FFFFFF"/>
		<stop  offset="1" style="stop-color:#000000"/>
	</radialGradient>
	<circle fill="url(#SVGID_27_)" cx="174.75" cy="274.75" r="11.75"/>
	<radialGradient id="SVGID_28_" cx="69.75" cy="87.75" r="6.8213" gradientUnits="userSpaceOnUse">
		<stop  offset="0" style="stop-color:#FFFFFF"/>
		<stop  offset="1" style="stop-color:#000000"/>
	</radialGradient>
	<circle fill="url(#SVGID_28_)" cx="69.75" cy="87.75" r="6.821"/>
	<radialGradient id="SVGID_29_" cx="302.75" cy="257.75" r="6.8213" gradientUnits="userSpaceOnUse">
		<stop  offset="0" style="stop-color:#FFFFFF"/>
		<stop  offset="1" style="stop-color:#000000"/>
	</radialGradient>
	<circle fill="url(#SVGID_29_)" cx="302.75" cy="257.75" r="6.821"/>
	<radialGradient id="SVGID_30_" cx="206.75" cy="171.75" r="23.2129" gradientUnits="userSpaceOnUse">
		<stop  offset="0" style="stop-color:#FFFFFF"/>
		<stop  offset="1" style="stop-color:#000000"/>
	</radialGradient>
	<circle fill="url(#SVGID_30_)" cx="206.75" cy="171.75" r="23.213"/>
	<radialGradient id="SVGID_31_" cx="124.75" cy="210.75" r="23.2129" gradientUnits="userSpaceOnUse">
		<stop  offset="0" style="stop-color:#FFFFFF"/>
		<stop  offset="1" style="stop-color:#000000"/>
	</radialGradient>
	<circle fill="url(#SVGID_31_)" cx="124.75" cy="210.75" r="23.213"/>
	<radialGradient id="SVGID_32_" cx="248.75" cy="266.75" r="23.2129" gradientUnits="userSpaceOnUse">
		<stop  offset="0" style="stop-color:#FFFFFF"/>
		<stop  offset="1" style="stop-color:#000000"/>
	</radialGradient>
	<circle fill="url(#SVGID_32_)" cx="248.75" cy="266.75" r="23.213"/>
</g>
</svg>
