<?xml version="1.0" encoding="utf-8"?>
<!-- Generator: Adobe Illustrator 16.0.0, SVG Export Plug-In . SVG Version: 6.00 Build 0)  -->
<!DOCTYPE svg PUBLIC "-//W3C//DTD SVG 1.1//EN" "http://www.w3.org/Graphics/SVG/1.1/DTD/svg11.dtd" [
	<!ENTITY ns_flows "http://ns.adobe.com/Flows/1.0/">
	<!ENTITY ns_extend "http://ns.adobe.com/Extensibility/1.0/">
	<!ENTITY ns_ai "http://ns.adobe.com/AdobeIllustrator/10.0/">
	<!ENTITY ns_graphs "http://ns.adobe.com/Graphs/1.0/">
]>
<svg version="1.1" id="Layer_1" xmlns:x="&ns_extend;" xmlns:i="&ns_ai;" xmlns:graph="&ns_graphs;"
	 xmlns="http://www.w3.org/2000/svg" xmlns:xlink="http://www.w3.org/1999/xlink" xmlns:a="http://ns.adobe.com/AdobeSVGViewerExtensions/3.0/"
	 x="0px" y="0px" width="116.221px" height="192.756px" viewBox="0 0 116.221 192.756" enable-background="new 0 0 116.221 192.756"
	 xml:space="preserve">
<g>
	<g>
		<rect x="54.7" y="104.303" fill="#915131" width="6.82" height="82.633"/>
		<g>
			<path fill="#217324" d="M58.11,113.145c0,0-18.205,13.004-36.309,8.924c0,0,7.441-1.681,13.482-10.709
				c8.19-12.238,22.826-10.963,22.826-10.963V113.145z"/>
			<path fill="#1B601F" d="M58.11,113.145c0,0,18.205,13.004,36.308,8.924c0,0-7.44-1.681-13.482-10.709
				c-8.19-12.238-22.825-10.963-22.825-10.963V113.145z"/>
		</g>
		<g>
			<g>
				<path fill="#CE0D00" d="M36.702,4.432l-0.488-1.595c0,0,50.967,15.125,50.967,42.588c0,27.464-29.07,26.668-29.07,26.668
					s-29.07,0.796-29.07-26.668c0-4.557,1.403-8.773,3.745-12.639C37.969,24.229,39.628,14,36.702,4.432z"/>
				<path fill="#B80300" d="M79.519,4.432l0.487-1.595c0,0-50.966,15.125-50.966,42.588c0,27.464,29.07,26.668,29.07,26.668
					s29.07,0.796,29.07-26.668c0-4.557-1.404-8.773-3.745-12.639C78.251,24.229,76.593,14,79.519,4.432z"/>
			</g>
			<path fill="#E21709" d="M27.07,10.637l-0.707-2.313c0,0,73.896,21.929,73.896,61.748S58.11,108.738,58.11,108.738
				s-42.149,1.153-42.149-38.666c0-6.606,2.035-12.721,5.43-18.324C28.907,39.341,31.313,24.509,27.07,10.637z"/>
			<path fill="#CE0D00" d="M89.15,10.637l0.707-2.313c0,0-73.896,21.929-73.896,61.748s42.148,38.666,42.148,38.666
				s42.15,1.153,42.15-38.666c0-6.606-2.035-12.721-5.431-18.324C87.313,39.341,84.907,24.509,89.15,10.637z"/>
		</g>
		<g>
			<g>
				<g>
					<path fill="#217324" d="M66.331,169.573c0,0-10.797-14.082,2.924-27.803c13.72-13.721,36.676-11.797,36.676-11.797
						L66.331,169.573z"/>
					<path fill="#1B601F" d="M66.331,169.573c0,0,14.082,10.797,27.803-2.924c13.721-13.72,11.797-36.676,11.797-36.676
						L66.331,169.573z"/>
				</g>
				<polygon fill="#915131" points="57.444,176.488 97.209,138.695 59.416,178.46 				"/>
			</g>
			<g>
				<g>
					<path fill="#217324" d="M49.89,169.573c0,0,10.797-14.082-2.924-27.803S10.29,129.974,10.29,129.974L49.89,169.573z"/>
					<path fill="#1B601F" d="M49.89,169.573c0,0-14.083,10.797-27.803-2.924C8.366,152.93,10.29,129.974,10.29,129.974
						L49.89,169.573z"/>
				</g>
				<polygon fill="#915131" points="58.776,176.488 19.012,138.695 56.805,178.46 				"/>
			</g>
		</g>
	</g>
</g>
</svg>
