<?xml version="1.0" encoding="utf-8"?>
<!-- Generator: Adobe Illustrator 16.0.0, SVG Export Plug-In . SVG Version: 6.00 Build 0)  -->
<!DOCTYPE svg PUBLIC "-//W3C//DTD SVG 1.1//EN" "http://www.w3.org/Graphics/SVG/1.1/DTD/svg11.dtd" [
	<!ENTITY ns_flows "http://ns.adobe.com/Flows/1.0/">
	<!ENTITY ns_extend "http://ns.adobe.com/Extensibility/1.0/">
	<!ENTITY ns_ai "http://ns.adobe.com/AdobeIllustrator/10.0/">
	<!ENTITY ns_graphs "http://ns.adobe.com/Graphs/1.0/">
]>
<svg version="1.1" id="Layer_1" xmlns:x="&ns_extend;" xmlns:i="&ns_ai;" xmlns:graph="&ns_graphs;"
	 xmlns="http://www.w3.org/2000/svg" xmlns:xlink="http://www.w3.org/1999/xlink" xmlns:a="http://ns.adobe.com/AdobeSVGViewerExtensions/3.0/"
	 x="0px" y="0px" width="198.426px" height="175.748px" viewBox="0 0 198.426 175.748" enable-background="new 0 0 198.426 175.748"
	 xml:space="preserve">
<g>
	<g>
		<g>
			<g>
				<polygon fill="#DBEAF3" points="59.592,2.734 16.446,16.453 10.664,39.236 52.954,56.566 77.47,17.995 				"/>
				<polygon fill="#B8D7E8" points="46.558,6.879 29.479,12.309 30.845,32.82 52.954,56.566 57.289,24.412 				"/>
				<polygon fill="#B8D7E8" points="10.664,39.236 77.47,17.995 52.954,56.566 				"/>
				<polygon fill="#DBEAF3" points="30.845,32.82 52.954,56.566 57.289,24.412 				"/>
			</g>
			<polygon fill="#FCAB11" points="63.152,58.521 45.755,64.052 37.74,50.892 62.097,43.148 			"/>
			<g>
				<path fill="#FABA19" d="M52.187,54.153C20.158,64.336,2.45,98.556,12.633,130.583c10.184,32.027,44.401,49.736,76.43,39.553
					c32.027-10.184,49.736-44.402,39.553-76.43S84.214,43.97,52.187,54.153z M85.049,157.515
					c-25.057,7.967-51.828-5.887-59.795-30.945c-7.967-25.057,5.888-51.828,30.945-59.795c25.057-7.967,51.828,5.888,59.795,30.945
					C123.961,122.776,110.106,149.548,85.049,157.515z"/>
				<path fill="#FCAB11" d="M52.187,54.153l4.013,12.621c25.057-7.967,51.828,5.888,59.795,30.945
					c7.967,25.057-5.888,51.828-30.945,59.795l4.014,12.621c32.027-10.184,49.736-44.402,39.553-76.43S84.214,43.97,52.187,54.153z"
					/>
			</g>
		</g>
		<g>
			<g>
				<polygon fill="#DBEAF3" points="152.991,18.063 188.368,29.312 193.109,47.993 158.434,62.203 138.332,30.577 				"/>
				<polygon fill="#B8D7E8" points="163.678,21.462 177.682,25.914 176.563,42.732 158.434,62.203 154.879,35.838 				"/>
				<polygon fill="#B8D7E8" points="193.109,47.993 138.332,30.577 158.434,62.203 				"/>
				<polygon fill="#DBEAF3" points="176.563,42.732 158.434,62.203 154.879,35.838 				"/>
			</g>
			<polygon fill="#FCAB11" points="150.07,63.806 164.336,68.341 170.908,57.551 150.938,51.201 			"/>
			<g>
				<path fill="#FCAB11" d="M96.395,92.657c-8.35,26.26,6.17,54.318,32.432,62.668s54.318-6.17,62.669-32.432
					c8.35-26.262-6.171-54.319-32.433-62.669C132.802,51.875,104.744,66.395,96.395,92.657z M106.743,95.946
					c6.532-20.546,28.483-31.905,49.03-25.373c20.545,6.532,31.905,28.484,25.373,49.029c-6.533,20.547-28.484,31.906-49.029,25.373
					C111.57,138.444,100.211,116.493,106.743,95.946z"/>
				<g>
					<path fill="#FABA19" d="M106.743,95.946c1.041-3.273,2.478-6.313,4.233-9.086c-2.031-3.246-4.428-6.19-7.111-8.802
						c-3.195,4.309-5.754,9.2-7.471,14.599c-8.35,26.26,6.17,54.318,32.432,62.668l3.291-10.35
						C111.57,138.444,100.211,116.493,106.743,95.946z"/>
					<path fill="#FABA19" d="M113.075,68.572c2.587,2.516,4.964,5.269,7.09,8.252c9.788-7.506,22.962-10.272,35.607-6.251
						l3.29-10.349C142.695,55.021,125.632,58.702,113.075,68.572z"/>
				</g>
			</g>
		</g>
	</g>
</g>
</svg>
